# xmcd
# 
# Track frame offsets:
#     150
#     43325
#     76811
#     92930
#     141899
#     186777
# 
# Disc length: 3661
# 
# Revision: 0
# Processed by: cddbd v1.5.2PL0 Copyright (c) Steve Scherf et al.
# Submitted via: fre:ac v1.0.17
# 
DISCID=4d0e4b06
DTITLE=Ten Years After - Live at the Fillmore East CD 1
DYEAR=1970
DGENRE=Blues Rock
TTITLE0=Love Like a Man
TTITLE1=Good Morning Little Schoolgirl
TTITLE2=Working on the Road
TTITLE3=The Hobbit
TTITLE4=50,000 Miles Beneath My Brain
TTITLE5=Skoobly-Oobly-Doobob - I Can't Keep from Crying Sometimes - Extension on one Chord
EXTD=
EXTT0=
EXTT1=
EXTT2=
EXTT3=
EXTT4=
EXTT5=
PLAYORDER=
